<svg width="899" height="241" viewBox="0 0 899 241" fill="none" xmlns="http://www.w3.org/2000/svg">
<path d="M19.2783 204.596C20.3363 205.41 21.1908 206.467 21.8418 207.77C22.4928 209.072 22.8184 210.659 22.8184 212.53C22.8184 214.402 22.4521 216.03 21.7197 217.413C20.9873 218.715 20.0514 219.773 18.9121 220.587C16.7148 222.052 14.1107 222.784 11.0996 222.784C6.78646 222.784 3.69401 220.831 1.82227 216.925C1.2526 215.623 0.967773 214.117 0.967773 212.408C0.967773 207.525 3.3278 204.27 8.04785 202.643C9.34993 202.236 10.6113 202.032 11.832 202.032C13.1341 202.032 14.4362 202.236 15.7383 202.643C17.0404 203.049 18.2204 203.701 19.2783 204.596ZM75.6748 204.596C76.7327 205.41 77.5872 206.467 78.2383 207.77C78.8893 209.072 79.2148 210.659 79.2148 212.53C79.2148 214.402 78.8486 216.03 78.1162 217.413C77.3838 218.715 76.4479 219.773 75.3086 220.587C73.1113 222.052 70.5072 222.784 67.4961 222.784C63.1829 222.784 60.0905 220.831 58.2188 216.925C57.6491 215.623 57.3643 214.117 57.3643 212.408C57.3643 207.525 59.7243 204.27 64.4443 202.643C65.7464 202.236 67.0078 202.032 68.2285 202.032C69.5306 202.032 70.8327 202.236 72.1348 202.643C73.4368 203.049 74.6169 203.701 75.6748 204.596ZM132.315 183.966C129.711 194.057 127.229 203.456 124.869 212.164C122.59 220.872 120.759 227.341 119.376 231.573C118.074 235.886 116.731 238.491 115.348 239.386C114.046 240.362 112.743 240.851 111.441 240.851C110.221 240.851 109.081 240.322 108.023 239.264C107.047 238.206 106.559 236.944 106.559 235.479C106.559 234.096 107.169 231.655 108.39 228.155C109.692 224.656 111.563 218.837 114.005 210.699C116.528 202.48 119.173 193.447 121.939 183.6C124.706 173.753 127.514 163.336 130.362 152.35C133.292 141.363 136.181 130.255 139.029 119.024C141.878 107.794 144.604 96.7262 147.208 85.8213C149.894 74.9163 152.376 64.6217 154.654 54.9375C160.188 31.8255 163.81 16.3226 165.519 8.42871C166.088 5.90592 167.105 4.03418 168.57 2.81348C170.035 1.59277 171.459 0.982422 172.843 0.982422C174.308 0.982422 175.61 1.51139 176.749 2.56934C177.97 3.62728 178.58 4.80729 178.58 6.10938C178.58 8.4694 177.929 11.277 176.627 14.5322C175.406 17.7874 173.657 23.2399 171.378 30.8896C169.181 38.458 166.821 46.9215 164.298 56.2803C161.856 65.639 159.293 75.6488 156.607 86.3096C153.922 96.9704 151.196 107.875 148.429 119.024C145.743 130.092 143.017 141.16 140.25 152.228C137.564 163.214 134.92 173.793 132.315 183.966ZM251.212 130.987C251.212 135.382 249.015 137.905 244.62 138.556C239.249 139.614 233.186 144.212 226.432 152.35C219.189 161.139 215.12 169.806 214.225 178.351C213.899 182.094 213.736 185.512 213.736 188.604C213.736 196.01 214.062 203.782 214.713 211.92C214.876 214.605 214.184 216.64 212.638 218.023C211.173 219.407 209.545 220.099 207.755 220.099C206.046 220.099 204.54 219.488 203.238 218.268C201.936 216.965 201.407 215.053 201.651 212.53C201.896 209.926 202.099 206.956 202.262 203.619C202.424 200.201 202.587 196.62 202.75 192.877C202.913 186.529 202.994 179.449 202.994 171.637C202.994 158.453 202.831 148.688 202.506 142.34C202.18 135.911 202.221 132.208 202.628 131.231C203.035 130.255 203.564 129.482 204.215 128.912C205.598 127.61 207.104 126.959 208.731 126.959C210.44 126.959 211.946 127.569 213.248 128.79C214.632 130.011 215.242 131.598 215.079 133.551C214.998 135.423 214.835 137.294 214.591 139.166C214.428 140.956 214.225 143.194 213.98 145.88C213.492 150.193 213.045 154.791 212.638 159.674C215.974 151.292 220.735 143.561 226.92 136.48C233.837 128.749 239.859 124.884 244.986 124.884C247.184 124.884 248.771 125.494 249.747 126.715C250.724 127.936 251.212 129.36 251.212 130.987ZM313.224 166.266C313.386 152.105 310.416 142.421 304.312 137.213C301.871 135.016 298.901 133.917 295.401 133.917C291.902 133.917 289.013 134.568 286.734 135.87C284.456 137.172 282.421 138.922 280.631 141.119C278.922 143.316 277.457 145.839 276.236 148.688C275.097 151.454 274.161 154.303 273.429 157.232C272.696 160.325 272.167 163.377 271.842 166.388L288.565 167.12C299.47 167.12 307.69 166.835 313.224 166.266ZM271.354 176.886C271.516 188.116 273.551 196.702 277.457 202.643C281.689 208.99 287.67 212.164 295.401 212.164C302.481 212.164 307.649 208.665 310.904 201.666C312.939 197.109 315.462 194.83 318.473 194.83C319.856 194.83 320.995 195.278 321.891 196.173C322.867 197.068 323.315 198.655 323.233 200.934C323.152 203.131 322.338 205.532 320.792 208.136C319.327 210.74 317.252 213.059 314.566 215.094C308.707 219.651 301.668 221.93 293.448 221.93C284.578 221.93 276.928 218.146 270.499 210.577C263.744 202.602 260.367 193.121 260.367 182.135C260.367 171.148 261.303 162.237 263.175 155.401C265.128 148.484 267.691 142.747 270.865 138.189C277.05 128.993 284.781 124.396 294.059 124.396C305.94 124.396 314.282 129.075 319.083 138.434C322.42 144.944 324.21 154.506 324.454 167.12C324.535 170.701 323.966 173.102 322.745 174.322C321.524 175.543 319.042 176.153 315.299 176.153L271.354 176.886ZM353.629 188.116C357.372 188.116 359.041 191.493 358.634 198.248C358.308 202.236 359.854 205.654 363.272 208.502C366.528 211.269 370.719 212.652 375.846 212.652C381.054 212.652 385.245 211.228 388.419 208.38C391.593 205.532 393.18 201.992 393.18 197.76C393.18 193.447 392.122 190.11 390.006 187.75C387.89 185.309 385.245 183.152 382.071 181.28C378.897 179.327 375.479 177.496 371.817 175.787C368.155 173.997 364.737 171.962 361.563 169.684C354.158 164.231 350.455 157.517 350.455 149.542C350.455 142.625 352.815 136.887 357.535 132.33C362.581 127.366 369.132 124.884 377.188 124.884C384.106 124.884 389.884 126.878 394.522 130.865C399.487 135.097 401.969 140.59 401.969 147.345C402.457 150.681 402.009 153.163 400.626 154.791C399.243 156.337 397.615 157.11 395.743 157.11C393.953 157.11 392.488 156.297 391.349 154.669C390.291 153.041 389.802 151.129 389.884 148.932C390.047 146.734 389.924 144.822 389.518 143.194C389.192 141.485 388.5 139.939 387.442 138.556C385.082 135.463 381.257 133.917 375.968 133.917C371.736 133.917 368.644 134.934 366.69 136.969C363.354 140.468 361.686 144.13 361.686 147.955C361.686 151.78 362.743 154.954 364.859 157.477C366.975 159.918 369.62 162.156 372.794 164.19C375.968 166.144 379.386 168.015 383.048 169.806C386.71 171.596 390.128 173.631 393.302 175.909C400.707 181.199 404.41 187.831 404.41 195.807C404.41 203.456 401.887 209.641 396.842 214.361C391.552 219.326 384.187 221.808 374.747 221.808C366.609 221.808 359.814 219.407 354.361 214.605C348.746 209.804 346.183 203.782 346.671 196.539C346.996 190.924 349.316 188.116 353.629 188.116ZM469.352 136.847C466.666 134.894 463.492 133.917 459.83 133.917C456.249 133.917 452.953 134.934 449.942 136.969C447.013 138.922 444.531 141.689 442.496 145.27C438.346 152.431 436.271 162.278 436.271 174.811C436.271 187.262 438.264 196.458 442.252 202.398C446.24 208.339 451.57 211.31 458.243 211.31C465.567 211.31 471.427 207.118 475.821 198.736C479.728 191.249 481.681 182.053 481.681 171.148C481.681 154.384 477.571 142.95 469.352 136.847ZM458.121 221.686C453.482 221.767 449.129 220.831 445.06 218.878C441.072 216.843 437.613 213.71 434.684 209.479C428.255 200.527 425.04 187.791 425.04 171.271C425.04 156.459 428.499 144.781 435.416 136.236C441.926 128.098 450.553 124.029 461.295 124.029C470.328 124.029 477.815 127.936 483.756 135.748C489.859 144.049 492.911 155.442 492.911 169.928C492.911 186.041 489.371 198.899 482.291 208.502C475.943 217.128 467.887 221.523 458.121 221.686ZM528.556 189.215C528.556 203.701 533.967 210.943 544.791 210.943C550.976 210.943 556.266 207.851 560.66 201.666C564.566 196.132 566.886 189.54 567.618 181.891C567.862 174.729 567.984 168.137 567.984 162.115C567.984 153.489 567.903 144.781 567.74 135.992C567.577 133.307 568.269 131.272 569.815 129.889C571.362 128.505 572.949 127.813 574.576 127.813C576.285 127.813 577.791 128.465 579.093 129.767C580.395 130.987 580.883 132.818 580.558 135.26C579.093 150.966 578.36 166.144 578.36 180.792C578.36 195.359 578.564 203.497 578.971 205.206C579.378 206.915 579.866 208.339 580.436 209.479C581.738 212.408 582.389 214.565 582.389 215.948C582.389 217.25 581.86 218.471 580.802 219.61C579.825 220.831 578.442 221.441 576.651 221.441C570.548 221.441 567.577 215.867 567.74 204.718C564.973 209.763 562.41 213.263 560.05 215.216C551.993 221.889 543.163 223.476 533.561 219.977C522.818 215.908 517.447 205.287 517.447 188.116C517.447 179.164 517.366 170.335 517.203 161.627C517.122 152.919 517.122 144.374 517.203 135.992C517.285 133.307 518.017 131.313 519.4 130.011C520.865 128.627 522.411 127.936 524.039 127.936C525.748 127.936 527.294 128.546 528.678 129.767C530.061 130.987 530.549 133.062 530.143 135.992C529.817 138.922 529.532 142.747 529.288 147.467C529.125 152.187 529.003 157.029 528.922 161.993C528.678 170.294 528.556 179.368 528.556 189.215ZM661.124 130.987C661.124 135.382 658.927 137.905 654.532 138.556C649.161 139.614 643.098 144.212 636.344 152.35C629.101 161.139 625.032 169.806 624.137 178.351C623.811 182.094 623.648 185.512 623.648 188.604C623.648 196.01 623.974 203.782 624.625 211.92C624.788 214.605 624.096 216.64 622.55 218.023C621.085 219.407 619.457 220.099 617.667 220.099C615.958 220.099 614.452 219.488 613.15 218.268C611.848 216.965 611.319 215.053 611.563 212.53C611.808 209.926 612.011 206.956 612.174 203.619C612.337 200.201 612.499 196.62 612.662 192.877C612.825 186.529 612.906 179.449 612.906 171.637C612.906 158.453 612.743 148.688 612.418 142.34C612.092 135.911 612.133 132.208 612.54 131.231C612.947 130.255 613.476 129.482 614.127 128.912C615.51 127.61 617.016 126.959 618.644 126.959C620.353 126.959 621.858 127.569 623.16 128.79C624.544 130.011 625.154 131.598 624.991 133.551C624.91 135.423 624.747 137.294 624.503 139.166C624.34 140.956 624.137 143.194 623.893 145.88C623.404 150.193 622.957 154.791 622.55 159.674C625.886 151.292 630.647 143.561 636.832 136.48C643.749 128.749 649.771 124.884 654.898 124.884C657.096 124.884 658.683 125.494 659.659 126.715C660.636 127.936 661.124 129.36 661.124 130.987ZM732.047 154.913C732.047 160.121 729.972 162.726 725.821 162.726C721.752 162.726 719.718 160.121 719.718 154.913C719.881 141.404 714.916 134.649 704.825 134.649C698.478 134.649 693.229 138.637 689.078 146.612C685.416 153.855 683.585 161.79 683.585 170.416C683.585 179.042 684.195 185.797 685.416 190.68C686.718 195.562 688.427 199.55 690.543 202.643C694.449 208.583 699.454 211.554 705.558 211.554C709.464 211.554 712.678 210.089 715.201 207.159C717.805 204.148 719.555 201.015 720.45 197.76C721.834 192.714 723.95 190.191 726.798 190.191C728.181 190.273 729.402 190.842 730.46 191.9C731.518 192.958 731.925 194.911 731.681 197.76C731.437 200.527 730.541 203.456 728.995 206.549C727.449 209.641 725.455 212.327 723.014 214.605C717.805 219.244 711.295 221.563 703.482 221.563C694.938 221.563 687.776 217.617 681.998 209.723C675.732 201.178 672.599 189.337 672.599 174.2C672.599 158.331 675.813 145.88 682.242 136.847C688.183 128.546 695.711 124.314 704.825 124.151C712.556 123.989 718.945 126.552 723.99 131.842C729.361 137.294 732.047 144.985 732.047 154.913ZM807.12 166.266C807.283 152.105 804.312 142.421 798.209 137.213C795.768 135.016 792.797 133.917 789.298 133.917C785.799 133.917 782.91 134.568 780.631 135.87C778.352 137.172 776.318 138.922 774.527 141.119C772.818 143.316 771.354 145.839 770.133 148.688C768.993 151.454 768.058 154.303 767.325 157.232C766.593 160.325 766.064 163.377 765.738 166.388L782.462 167.12C793.367 167.12 801.586 166.835 807.12 166.266ZM765.25 176.886C765.413 188.116 767.447 196.702 771.354 202.643C775.585 208.99 781.567 212.164 789.298 212.164C796.378 212.164 801.546 208.665 804.801 201.666C806.835 197.109 809.358 194.83 812.369 194.83C813.753 194.83 814.892 195.278 815.787 196.173C816.764 197.068 817.211 198.655 817.13 200.934C817.049 203.131 816.235 205.532 814.688 208.136C813.224 210.74 811.148 213.059 808.463 215.094C802.604 219.651 795.564 221.93 787.345 221.93C778.474 221.93 770.825 218.146 764.396 210.577C757.641 202.602 754.264 193.121 754.264 182.135C754.264 171.148 755.2 162.237 757.071 155.401C759.024 148.484 761.588 142.747 764.762 138.189C770.947 128.993 778.678 124.396 787.955 124.396C799.837 124.396 808.178 129.075 812.979 138.434C816.316 144.944 818.106 154.506 818.351 167.12C818.432 170.701 817.862 173.102 816.642 174.322C815.421 175.543 812.939 176.153 809.195 176.153L765.25 176.886ZM847.525 188.116C851.269 188.116 852.937 191.493 852.53 198.248C852.205 202.236 853.751 205.654 857.169 208.502C860.424 211.269 864.615 212.652 869.742 212.652C874.951 212.652 879.142 211.228 882.315 208.38C885.489 205.532 887.076 201.992 887.076 197.76C887.076 193.447 886.018 190.11 883.902 187.75C881.786 185.309 879.142 183.152 875.968 181.28C872.794 179.327 869.376 177.496 865.714 175.787C862.052 173.997 858.634 171.962 855.46 169.684C848.054 164.231 844.352 157.517 844.352 149.542C844.352 142.625 846.712 136.887 851.432 132.33C856.477 127.366 863.028 124.884 871.085 124.884C878.002 124.884 883.78 126.878 888.419 130.865C893.383 135.097 895.865 140.59 895.865 147.345C896.354 150.681 895.906 153.163 894.522 154.791C893.139 156.337 891.511 157.11 889.64 157.11C887.849 157.11 886.384 156.297 885.245 154.669C884.187 153.041 883.699 151.129 883.78 148.932C883.943 146.734 883.821 144.822 883.414 143.194C883.089 141.485 882.397 139.939 881.339 138.556C878.979 135.463 875.154 133.917 869.864 133.917C865.632 133.917 862.54 134.934 860.587 136.969C857.25 140.468 855.582 144.13 855.582 147.955C855.582 151.78 856.64 154.954 858.756 157.477C860.872 159.918 863.517 162.156 866.69 164.19C869.864 166.144 873.282 168.015 876.944 169.806C880.606 171.596 884.024 173.631 887.198 175.909C894.604 181.199 898.307 187.831 898.307 195.807C898.307 203.456 895.784 209.641 890.738 214.361C885.449 219.326 878.084 221.808 868.644 221.808C860.506 221.808 853.71 219.407 848.258 214.605C842.643 209.804 840.079 203.782 840.567 196.539C840.893 190.924 843.212 188.116 847.525 188.116Z" fill="white"/>
</svg>
